# xmcd
#
# Track frame offsets:
# 150
# 9625
# 22212
# 36253
# 48538
# 58770
# 71225
# 80789
# 91326
# 97248
# 108500
# 127195
# 134046
# 148569
# 163297
# 176912
#
# Disc length: 2408 seconds
#
#
# Revision: 1
# Processed by: cddbd v1.5.2PL0 Copyright (c) Steve Scherf et al.
# Submitted via: FreeRIP 2.96 
#
DISCID=03096610
DTITLE=Stan Kenton - Together
DYEAR=1960
DGENRE=Jazz
TTITLE0=It Could Happen to You
TTITLE1=The Big Chase
TTITLE2=Easy Street
TTITLE3=The Carioca
TTITLE4=Let There be Love
TTITLE5=Opus in Chartreuse
TTITLE6=Kissing Bug
TTITLE7=Siesta
TTITLE8=I Want to be Happy
TTITLE9=Mexican Jumping Bean
TTITLE10=Willow, Weep for Me
TTITLE11=How High the Moon
TTITLE12=My Old Flame
TTITLE13=A Hundred Years from Today
TTITLE14=Stompin' at the Savoy
TTITLE15=Artistry in Rhythm
EXTD=Vocals by June Christy
EXTT0=
EXTT1=
EXTT2=
EXTT3=
EXTT4=
EXTT5=
EXTT6=
EXTT7=
EXTT8=
EXTT9=
EXTT10=
EXTT11=
EXTT12=
EXTT13=
EXTT14=
EXTT15=
PLAYORDER=
